<svg width="190" height="54" viewBox="0 0 190 54" fill="none" xmlns="http://www.w3.org/2000/svg">
<g clip-path="url(#clip0_173_153)">
<path fill-rule="evenodd" clip-rule="evenodd" d="M50.1784 13.5209C49.3124 12.2282 48.6577 10.7914 47.5523 9.85822C47.6488 9.85822 47.4729 9.59844 47.4607 9.58121C47.0031 9.05838 46.5451 8.53513 46.0866 8.01148C44.8188 6.87511 43.8172 5.85571 42.4224 4.84123C41.8398 4.41648 41.1545 4.15671 40.5902 3.73319C40.335 3.54113 38.7887 2.71748 38.7887 2.71748C38.4796 2.28411 37.2961 2.07604 36.7122 1.82489C35.5177 1.31026 34.1473 0.910134 32.6816 0.532167C32.2321 0.409051 31.0449 0.182517 30.9411 0.316714C30.6626 0.133271 29.7196 0.0507828 29.5364 0.162819C29.4656 0.0963358 29.4961 0.162819 29.5059 0.0704814L27.1241 0.00892327C26.7418 0.230532 26.147 -0.114193 25.5668 0.0397023C24.79 0.242844 24.2721 0.146813 23.3988 0.162819C23.4159 0.220683 23.4233 0.279779 23.3683 0.255156C23.1753 0.168974 21.9209 0.469378 21.6278 0.562946C21.4299 0.624504 21.1062 0.868274 20.8338 0.839958C20.6428 0.855731 20.4614 0.93103 20.3147 1.05541C19.9349 1.12805 17.6728 1.69562 17.475 1.97878H17.1085C16.7421 2.14376 16.179 2.55743 15.7344 2.74826C15.4059 2.88861 14.6352 3.2715 14.5741 3.48696C14.4984 3.46233 14.5594 3.5005 14.4825 3.4254L11.8564 4.96435C11.4192 5.26352 11.0015 5.79662 10.6045 6.16473C10.0463 6.68551 9.37209 7.07456 8.80291 7.58057C8.0497 8.34881 7.29649 9.11829 6.54329 9.889C6.19518 10.2941 6.05472 10.6757 5.7799 10.997C5.24859 11.6126 4.59024 12.3181 4.2226 12.9977L3.30654 14.1365C3.07202 14.5662 2.83873 14.9983 2.60422 15.4292C1.94466 16.504 1.086 17.9211 0.83317 19.3997C0.536366 21.1344 0.204141 23.044 0.00871491 24.94V27.1253C-0.10732 30.5245 0.985847 34.1429 2.2378 36.8514C2.78377 38.0334 3.2931 39.411 3.94778 40.4526C6.60069 44.6742 9.8692 48.0316 14.2077 50.5173C18.7061 53.0942 24.7644 55.0197 31.277 53.4106C43.5351 50.3795 52.438 42.324 53.8731 28.7873C54.5217 22.6685 52.5845 17.1122 50.1784 13.5209ZM48.1325 17.83C48.4403 17.3535 48.8153 16.9054 49.0485 16.3526C49.6312 16.7441 49.5371 17.7906 49.9646 18.3532C50.1991 18.661 50.2492 19.2852 50.4532 19.7383C51.274 21.5518 51.5891 23.9957 51.583 26.2019C50.8355 26.0098 48.4916 24.7122 48.0409 24.7861C47.1786 24.2123 46.2185 23.3887 45.2316 22.8162C45.3452 22.3336 45.7397 21.9199 45.9645 21.5235C46.6937 20.2357 47.3361 19.0599 48.1325 17.83ZM46.2393 11.4895C46.6448 12.3969 47.4864 13.1799 47.9187 13.9518C47.8284 14.1328 47.6097 14.2128 47.4912 14.3827C47.5206 14.9368 48.0836 15.6508 47.8882 16.2295C47.7819 16.5434 47.3593 16.781 47.2164 17.0605C46.5349 18.3828 45.3623 19.3899 44.3461 20.5386L43.2163 21.8005L41.5674 22.4469C41.0312 22.5934 40.1847 22.2105 39.7047 22.0775C38.2073 21.6601 36.5926 21.7993 35.3076 21.1541H35.2466C35.2368 19.0218 36.06 17.031 36.0099 14.9675C36.4472 14.4332 36.8849 13.8997 37.323 13.367L39.0024 12.6899L44.0713 10.72C44.7345 10.9663 45.1168 11.3922 45.6591 11.7357C45.9657 11.7037 45.9828 11.5486 46.2393 11.4895ZM37.9337 32.173C37.8482 32.1029 37.715 32.1238 37.5978 32.1115C36.8124 32.6126 37.0677 33.5224 37.2924 34.3891C37.6222 34.5553 37.9911 34.4162 38.3612 34.4507L38.4222 34.4815V34.8508C36.9016 34.5689 34.918 34.9296 33.6587 34.3891C33.6184 34.0703 33.5769 33.7526 33.5366 33.435C34.1729 32.9425 34.8862 32.0942 35.3076 31.4036C35.5307 30.9932 35.7547 30.5828 35.9794 30.1724C36.2237 29.9372 36.5657 30.0357 36.926 29.8954C37.6088 29.9791 38.476 32.2001 38.636 32.7271C38.7276 33.0299 38.967 33.4264 38.7887 33.8043L38.7276 33.8967L38.5138 33.7735C38.5627 33.0829 38.4638 32.434 37.9337 32.173ZM32.6816 34.4199C32.7634 34.1638 33.0199 34.0592 33.1701 33.8659C33.2471 33.9373 33.2288 34.0998 33.1701 34.266C33.1982 34.4876 32.8892 34.4458 32.6816 34.4199ZM33.1091 32.6655H33.048C32.5081 32.0811 31.9687 31.4963 31.4296 30.9111C31.2415 30.7621 31.3197 30.7584 31.4296 30.5725C31.9011 30.7252 33.0932 31.9539 33.4144 32.3577L33.1091 32.6655ZM28.4677 38.6059C28.2906 39.3445 28.944 39.954 29.6586 39.9909L29.7502 40.2371V40.2679C28.9037 40.4575 26.9861 38.0777 26.5745 37.467C26.7333 37.0977 26.8481 36.6643 27.1852 36.4821L28.5898 36.2051C29.4155 35.9847 30.4501 35.6548 31.0937 35.1894L31.9182 35.5587C32.1405 35.8123 31.8364 36.5757 31.7655 36.8514C31.4398 38.0005 31.1141 39.1496 30.7884 40.2987C30.2241 40.0993 30.6382 39.5538 30.7578 39.0368C30.2583 38.4396 29.087 37.7957 28.4677 38.6059ZM21.8721 37.1592C21.3908 36.4378 20.3746 36.8613 19.7346 37.1285C19.7138 37.4867 19.6943 37.8462 19.6735 38.2057L19.643 38.2981L19.3376 38.3288C19.3547 37.3562 19.323 34.3633 19.7651 33.5581C19.8873 33.3845 20.4467 33.4128 20.6812 33.3734C21.3664 33.8893 21.9148 34.6046 22.6354 35.097C23.0361 35.3704 23.7347 35.5661 24.0095 35.8665C24.2318 36.1127 24.2538 36.535 24.2538 37.0053C23.7408 37.7022 21.3224 38.7893 20.3147 38.6982V38.5443C20.8546 38.1749 21.6241 38.5985 21.9942 37.744C22.0968 37.5003 21.9624 37.2947 21.8721 37.1592ZM15.5512 28.3257C14.7573 27.9563 14.3298 29.1013 14.1771 29.5568L13.9634 29.6184H13.9329C13.7777 28.6334 16.1094 26.895 16.7421 26.3558C18.1138 26.6944 17.8121 27.9391 18.2383 29.2182C18.4924 29.8125 18.7469 30.4075 19.0017 31.0034C18.8918 31.2152 18.766 31.6633 18.5742 31.8037C18.2078 31.9083 17.6056 31.6375 17.2612 31.5574C16.132 31.314 15.0201 30.9952 13.9329 30.6033L13.9634 30.4186C14.2602 30.245 14.783 30.5184 15.1543 30.6341C15.6343 30.2475 16.5882 28.7836 15.5512 28.3257ZM15.765 20.6617C15.8627 21.2083 16.1314 21.5456 16.62 21.7082C17.7534 21.5986 17.3614 20.2086 17.1391 19.4613C16.7861 19.2705 16.3793 19.4034 15.9482 19.3382V18.9688C17.2685 18.9959 18.4521 19.039 19.6735 19.2458L20.6506 19.3689C20.8241 19.4748 20.7972 20.1076 20.8338 20.3847C20.2048 20.8205 19.5123 21.7094 19.0933 22.3545C18.7648 22.8593 18.6365 23.5278 18.1162 23.8319C17.8463 23.9883 17.4798 23.9009 17.2307 23.955C16.8459 23.4699 15.1347 20.8463 15.5207 20.0153L15.5512 19.923L15.7344 19.9845C15.8285 20.1729 15.7051 20.328 15.765 20.6617ZM21.3224 21.1541C21.629 21.3006 22.8834 22.6857 23.0324 23.0009C23.0715 23.108 23.0006 23.1117 22.9408 23.2779C22.3838 22.8605 21.3004 21.9852 20.9865 21.4311L21.3224 21.1541ZM21.2919 19.3689H21.6888L21.7194 19.4305L21.2003 19.923C21.1836 19.7334 21.2152 19.5428 21.2919 19.3689ZM25.8111 15.3061C25.9797 14.5908 25.3067 13.9518 24.6813 13.9518C24.6204 13.9153 24.5745 13.8579 24.5521 13.7901C24.5297 13.7222 24.5322 13.6486 24.5592 13.5825C25.9736 14.0035 26.809 15.3751 27.6738 16.3834C27.8094 17.8078 25.7708 17.6367 24.7729 18.0454L23.1851 18.7226L22.4522 18.384C22.2495 18.0331 22.4718 17.4434 22.5744 17.0605C22.8834 15.9118 23.124 14.6979 23.521 13.6133L23.7652 13.7364L23.8569 13.7979C23.8178 14.1821 23.6407 14.4455 23.521 14.7829C24.0266 15.4859 25.0526 16.0596 25.8111 15.3061ZM27.8265 18.2301H28.0402C28.144 18.2117 28.1135 18.2055 28.1929 18.2609C28.1017 19.1523 28.0101 20.0449 27.9181 20.9387H27.7348L27.8265 18.2301ZM27.7348 17.4299C27.8167 17.3166 27.8973 17.2033 27.9791 17.0913L28.3761 17.3375L28.4677 17.4606L27.7654 17.4914L27.7348 17.4299ZM27.9486 21.7389C29.0186 21.7783 30.7969 23.2163 31.277 23.9242C31.6067 24.4069 31.7655 25.0089 31.9793 25.5863C32.1503 26.0394 32.4471 27.1868 32.2846 27.7716C31.7961 29.5334 30.4439 30.8261 28.8647 31.5267C28.3761 31.7446 27.0447 32.3651 26.2691 32.1423C23.6309 31.3826 20.8241 27.4946 22.8186 24.5398C23.6016 23.3788 24.6984 22.5355 26.147 22.0467L27.9486 21.7389ZM34.758 16.7527C34.7678 16.3932 34.7787 16.0337 34.7885 15.6755L34.8496 15.6139H35.0939C35.216 16.163 34.94 19.934 34.6969 20.4154C34.5613 20.5533 34.0483 20.5386 33.8419 20.5693C33.1396 19.9808 32.4984 19.1904 31.7044 18.7226C31.3295 18.5022 30.7957 18.3889 30.5136 18.0762C30.3169 17.8583 30.1618 17.3117 30.2693 16.9066C30.6467 16.1765 32.844 15.5129 33.7198 15.1522L34.1167 15.2138L34.2083 15.3369L34.0557 15.4908C33.219 15.7284 32.8562 15.4132 32.4678 16.2603C32.4813 17.5653 34.0862 17.127 34.758 16.7527ZM32.0098 23.8319C32.1319 23.4281 33.6917 22.7793 34.0557 22.4161C34.1521 22.4855 34.2263 22.5818 34.2694 22.6931L32.0709 23.955V23.8935C32.0501 23.8725 32.0306 23.8516 32.0098 23.8319ZM32.6816 20.6617C32.7601 20.6961 32.8306 20.7467 32.8885 20.8103C32.9464 20.874 32.9903 20.9492 33.0175 21.031L31.2159 22.7546H31.1853L30.9716 22.6315C31.1695 21.9864 32.2626 21.2206 32.6816 20.6617ZM30.2693 21.9852L29.9945 21.8928L29.9639 21.8313C30.3963 21.0421 31.0217 20.3465 31.6128 19.7075L31.9182 19.7999L32.0098 19.9537C31.7423 20.1003 30.4488 21.5567 30.2693 21.9852ZM33.4144 21.5543L33.6587 21.7697C33.4144 22.3324 32.193 22.8371 31.7655 23.3394H31.7044L31.5823 23.2471L31.5518 23.1548L33.4144 21.5543ZM34.5442 23.3087H34.6358C34.7067 23.4515 34.7787 23.5955 34.8496 23.7396C34.0557 24.0769 33.2617 24.4155 32.4678 24.7553H32.4373C32.4165 24.6728 32.397 24.5903 32.3762 24.509C32.9332 23.9661 33.8737 23.7248 34.5442 23.3087ZM34.2694 21.0002L34.7885 21.031C34.7787 21.1431 34.7678 21.2563 34.758 21.3696V21.4311L34.2694 21.0002ZM32.59 28.7566C33.445 29.1825 34.278 29.5593 35.0633 30.0185C35.023 30.1305 34.9815 30.2438 34.9412 30.3571L34.8801 30.4494L32.5594 29.0951C32.5045 28.9499 32.5484 28.9412 32.59 28.7566ZM32.9564 28.2333L35.6435 28.8489L35.5519 29.1875C35.3052 29.3192 32.9552 28.3934 32.9564 28.2333ZM33.0785 27.4946L33.048 27.3099L33.1701 27.2484L35.7962 27.3715C35.8215 27.4255 35.8321 27.4854 35.8267 27.545C35.8213 27.6045 35.8003 27.6615 35.7657 27.7101C35.58 27.8615 33.5573 27.4995 33.0785 27.4946ZM32.8953 26.8175C32.8856 26.7251 32.8746 26.6328 32.8648 26.5405L35.5519 25.9557C35.6215 26.0455 35.6313 26.3053 35.6435 26.4481L32.8953 26.8175ZM35.3382 25.0631C35.0475 25.3549 33.357 25.9089 32.8037 25.9249C32.7939 25.8215 32.783 25.7193 32.7732 25.6171C33.5488 25.4029 34.6273 25.084 35.2466 24.6322L35.3687 24.7245C35.3589 24.8365 35.3479 24.9498 35.3382 25.0631ZM35.0939 22.1083L34.8191 21.585H35.1855L35.216 21.6466C35.1769 21.8005 35.1342 21.9544 35.0939 22.1083ZM30.422 19.0304L30.8495 19.2151L29.4448 21.4927C29.3496 21.5764 29.33 21.5284 29.2005 21.4927C29.3593 20.5779 30.047 19.7912 30.422 19.0304ZM29.2616 18.384L29.5975 18.5379C29.3386 19.1646 29.1602 20.8057 28.6814 21.1234L28.5898 21.0618C28.8138 20.1696 29.0377 19.277 29.2616 18.384ZM29.2311 17.6145V17.553L29.6891 17.3683C29.8369 17.4582 29.9236 17.729 29.9945 17.8916L29.2311 17.6145ZM29.1395 32.2346L29.2922 32.173H29.3838L30.6052 34.4507L30.1471 34.6661C29.8748 33.8646 29.2445 33.1358 29.1395 32.2346ZM29.3227 35.1586L28.9257 35.2817C28.5972 34.9407 28.0622 33.2737 28.0097 32.6655L28.0707 32.6039H28.315L29.3227 35.1586ZM29.9029 31.8652L30.0861 31.7421C30.3304 31.8652 31.4406 33.4928 31.5212 33.8043L31.1548 34.0813C30.7371 33.3426 30.3198 32.6039 29.9029 31.8652ZM27.857 35.4664L27.4295 35.5895C27.2414 34.7892 27.2805 33.8277 27.0631 32.9425V32.7886L27.1852 32.7578H27.3379C27.5154 33.6607 27.6884 34.5635 27.857 35.4664ZM26.4524 35.7126L26.2081 35.7434H26.1775C25.9894 35.2866 26.3143 33.499 26.4218 32.9425H26.5745C26.7492 33.3845 26.5403 35.0478 26.4524 35.7126ZM21.2919 26.2019L21.3224 26.2635L21.2919 26.3558C20.669 26.5676 19.4732 26.1613 18.6048 26.2942C18.537 26.184 18.515 26.0513 18.5437 25.9249L21.2919 26.2019ZM18.7574 24.9707C18.7782 24.8575 18.7978 24.7442 18.8185 24.6322L21.414 25.4016C21.4238 25.473 21.4348 25.5445 21.4446 25.6171L18.788 25.0015L18.7574 24.9707ZM20.4369 26.9406L21.3835 26.8483C21.4726 26.9209 21.4873 26.9714 21.5056 27.1253L18.7269 27.6793C18.7171 27.5352 18.7061 27.3912 18.6964 27.2484L20.4369 26.9406ZM20.2537 24.3859L19.3071 23.8319L19.4598 23.401L21.811 24.7553L21.8721 24.8476C21.8242 24.9107 21.7928 24.9847 21.7804 25.0631L20.2537 24.3859ZM21.8415 28.9412C21.9637 28.9979 21.9637 29.041 21.9942 29.1875C21.822 29.3857 20.0619 30.2955 19.7346 30.3878C19.6112 30.2729 19.5259 30.1224 19.4903 29.9569C20.2744 29.6188 21.0582 29.2802 21.8415 28.9412ZM19.7346 32.45L20.1926 32.8809V32.9425L19.7346 32.9117V32.45ZM20.0705 30.9726L22.2385 29.7107C22.2898 29.792 22.3399 29.8745 22.3912 29.9569L20.2842 31.2804C20.2134 31.177 20.1413 31.0748 20.0705 30.9726ZM22.6965 30.4802C22.7783 30.5614 22.859 30.6439 22.9408 30.7264L21.1087 32.3269V32.3885L20.8949 32.1423L20.8338 32.0191C21.2626 31.8111 22.4742 30.8852 22.6965 30.4802ZM23.3072 31.1573L23.521 31.2497L23.5515 31.342L21.8721 33.1887L21.7804 33.2503L21.5362 32.9733L21.4751 32.8502L23.3072 31.1573ZM24.2233 31.9268L24.437 32.0191H24.4981C24.139 32.8809 23.3793 33.3833 22.9408 34.1429L22.666 34.1737C22.3386 33.8314 23.9265 32.4242 24.2233 31.9268ZM25.2309 21.6158L25.2004 21.6774L25.0172 21.7389C24.7155 21.5087 24.0083 19.9254 23.7652 19.4921L24.1317 19.2458C24.4737 19.4317 25.0294 21.1504 25.2309 21.6158ZM25.0172 18.7534L25.3836 18.6302C25.6474 18.8223 26.2838 20.7491 26.2997 21.2465L26.0249 21.308L25.0172 18.7534ZM24.4676 21.9544V21.9852L24.1927 22.1391L22.8186 20.0769L23.124 19.8306H23.2461L24.4676 21.9544ZM26.4829 18.4148L26.8188 18.4456L26.9104 18.4148C27.1339 19.3185 27.0325 20.1384 27.2768 21.0618C27.2402 21.096 27.1967 21.122 27.1493 21.1379C27.1019 21.1538 27.0517 21.1594 27.002 21.1541C26.8286 20.2406 26.6555 19.3275 26.4829 18.4148ZM22.666 18.938L22.1163 19.2151H22.0247L22.1774 18.7534L22.666 18.938ZM22.1774 20.4462H22.2995C22.7783 21.1119 23.2567 21.7787 23.7347 22.4469L23.5515 22.6315H23.4904L21.8721 20.754L22.1774 20.4462ZM22.2995 23.8627C22.346 24.0104 22.28 23.9686 22.2385 24.1705C21.3566 23.8233 20.7728 23.0218 20.0399 22.5084L20.0094 22.4161L20.2537 22.1083L22.2995 23.8627ZM17.7192 24.4167L18.2078 24.2013C18.126 24.4573 18.0454 24.7134 17.9635 24.9707L17.9025 25.0015L17.7192 24.4167ZM17.8414 26.4481L17.475 26.1403L17.4444 26.0172L17.7803 25.6171C17.8011 25.8941 17.8206 26.1711 17.8414 26.4481ZM18.9101 28.7873C18.9309 28.7356 18.9504 28.6839 18.9712 28.6334C19.726 28.2641 20.6604 28.1668 21.4446 27.7716L21.5667 27.864L21.5972 27.9563V28.0794C20.6934 28.2776 19.8665 28.7172 19.0323 29.0951C18.992 28.9917 18.9504 28.8895 18.9101 28.7873ZM19.246 31.5882L19.5819 32.173V32.2038L19.2155 32.0807H19.1544L19.246 31.5882ZM24.1011 34.9124L23.6736 34.7585C24.1524 33.9582 24.6308 33.158 25.1088 32.3577L25.292 32.4193C25.3592 33.0213 24.3283 34.3325 24.1011 34.9124ZM25.2004 35.5587L24.9256 35.4356C25.0893 34.5504 25.3592 33.5495 25.7195 32.7886L25.9027 32.8809C25.6169 33.6381 25.6413 35.0109 25.2004 35.5587ZM25.2615 36.3282V36.359L24.7424 36.5437C24.6605 36.3688 24.5799 36.194 24.4981 36.0204L25.2615 36.3282ZM26.5134 36.4205H26.6356L26.3302 36.7899L26.2386 36.8514L25.8417 36.5437L25.8111 36.4821L26.5134 36.4205ZM31.6739 35.0047L32.2235 34.6661H32.3152C32.3213 34.8003 32.2777 34.9319 32.193 35.0355L32.1625 35.1278L31.6739 35.0047ZM32.1319 33.3734L30.6052 31.4036L30.8495 31.1881C31.2733 31.4023 32.2333 32.6655 32.5289 33.0964L32.1319 33.3734ZM32.0403 29.9262L32.1625 29.6491C33.0346 29.9766 33.5256 30.9062 34.3305 31.2804L34.3916 31.3728L34.1473 31.7421L32.0403 29.9262ZM36.1931 29.5876C36.264 29.3414 36.3361 29.0951 36.4069 28.8489C36.5168 28.9425 36.6231 29.2736 36.6512 29.4337C36.4958 29.4589 36.349 29.5223 36.2237 29.6184L36.1931 29.5876ZM36.6817 27.9563L36.5596 28.0486C36.5388 27.7716 36.5193 27.4946 36.4985 27.2176L36.926 27.6177C36.8442 27.7298 36.7648 27.843 36.6817 27.9563ZM35.9183 24.0474C35.7253 23.605 35.532 23.1638 35.3382 22.7239L35.674 21.8928C37.428 21.9445 38.785 22.8347 40.3154 23.0932L40.346 23.2471L40.3154 23.3087C40.0711 23.4724 39.5081 23.1695 39.1856 23.0624C38.6824 23.6571 37.9752 24.2296 38.5749 25.217C39.2797 25.7513 40.0272 24.8476 40.1017 24.1397L40.3154 24.0474L40.3765 24.0781C40.5157 25.1049 38.2525 26.7535 37.5978 27.3099C36.2041 27.124 36.3385 25.1837 35.9183 24.0474ZM42.117 7.58057C42.7912 8.16291 43.9235 8.68862 44.3156 9.51965H44.3766L42.8193 9.889C42.2672 10.0687 41.6736 10.038 41.0483 10.2276C40.6025 10.3618 39.9673 10.7336 39.4299 10.72C38.785 10.7028 37.7956 10.9047 37.1703 11.1202H36.9871C36.7029 10.0318 36.4179 8.94429 36.1321 7.85758C36.0612 6.55419 35.99 5.25121 35.9183 3.94864C38.2305 4.54329 40.429 6.11302 42.117 7.58057ZM27.6127 2.74826C27.9681 2.2878 28.7914 3.08313 29.3838 2.07112C30.29 2.19424 30.6198 2.01202 31.5212 2.25579L33.445 2.80982C33.5573 3.0659 33.6685 3.32198 33.7809 3.57929C34.1119 3.6864 34.6102 3.82553 34.9107 3.91786C35.3382 5.32262 34.8117 6.55009 35.0939 8.07304C35.1036 8.44238 35.1146 8.81173 35.1244 9.18108C35.2254 10.0839 35.3272 10.9868 35.4298 11.8896C35.4371 12.2762 35.2661 12.4486 35.2771 12.6899C34.2022 14.3926 32.6242 14.6856 30.8495 15.7062L29.0173 16.9374C28.5695 16.3317 28.1216 15.7263 27.6738 15.1214C26.8444 14.0417 25.5009 13.2525 24.8645 12.0128C24.7424 11.7665 24.481 10.3975 24.5897 10.1045C25.0697 8.80435 25.8331 7.50916 26.3302 6.22629C26.7895 5.03822 26.925 3.8009 27.6127 2.74826ZM18.4521 4.13332C20.0741 3.45125 21.8317 3.04989 23.3072 2.62514L25.7806 2.31735H25.8111C25.893 2.38999 26.3412 2.37275 26.5134 2.34813L26.5745 2.37891C26.2178 3.36384 25.8184 4.44234 25.4142 5.14902L24.9561 6.22629C24.4957 6.83079 23.5173 8.06442 23.2767 8.78095C22.7466 8.81173 22.1151 8.21216 21.6888 7.9807C20.338 7.242 19.2033 6.5033 17.933 5.76461C17.4957 5.50976 17.1415 5.08624 16.5589 4.96435C16.6884 4.64055 18.0515 4.30075 18.4521 4.13332ZM11.8564 8.22693C11.8284 7.9807 11.7343 7.93514 11.6427 7.76524L12.6809 6.96499L12.9557 6.59564C13.476 6.30016 14.0012 6.17335 14.452 5.82616L14.8794 6.22629C17.3882 5.28445 17.4615 6.99823 19.0628 7.94992C19.897 8.44238 20.8522 9.48518 21.7194 10.166L22.2995 10.5969C22.4327 10.7939 22.9481 12.3021 22.8797 12.5976C22.6208 13.7155 22.3276 15.0439 22.0247 16.1371C21.7878 16.9891 21.8476 17.8374 21.4446 18.5687C21.3395 18.7004 20.4491 18.6229 20.1621 18.5687L16.5589 18.107C13.5054 18.2646 13.3111 15.8909 12.4672 13.7364C11.9969 12.536 11.3056 11.1977 11.0015 9.85822C10.8549 9.21309 11.6451 8.63075 11.8564 8.22693ZM5.01652 15.7062C5.93258 13.8238 7.51065 11.9266 8.86398 10.443C9.25076 10.0737 9.63754 9.70432 10.0243 9.33498C10.1049 9.51226 10.0121 9.65385 10.0549 9.85822C10.1978 10.4418 10.3394 11.0278 10.4824 11.6126C10.5227 11.9918 10.5642 12.371 10.6045 12.7515C10.9807 13.9087 11.4729 15.7358 11.4289 17.0297L7.88684 17.8608L4.00885 17.9531C3.97954 17.489 4.78811 16.1753 5.01652 15.7062ZM2.17673 24.6014C2.49796 23.4933 2.19261 21.5998 2.78743 20.6001L3.45921 20.3231L3.82564 19.1535C4.51329 18.8112 5.80189 19.0895 6.7265 19.0612C7.86608 19.0255 9.20109 19.1239 10.5129 18.9073L11.9175 18.7841C14.0953 18.762 14.6987 21.1849 15.4902 22.6315L17.2307 25.2477L16.4673 25.7402C16.0194 26.1079 15.5716 26.4773 15.1237 26.8483C14.1759 27.6177 13.4052 28.8464 12.2839 29.4029C12.0763 29.5051 10.712 29.7649 10.4213 29.6799L8.03952 28.5103C6.95002 28.0179 5.82143 27.7064 4.65009 27.2792L2.78743 26.4481C2.73858 26.0024 2.78011 25.6947 2.78743 25.1862L2.17673 24.6014ZM5.13866 37.3439L5.07759 37.3747C4.17731 35.3701 3.42213 33.3025 2.81797 31.1881C2.48697 30.0567 2.66041 28.743 2.45155 27.4638C3.08424 27.4872 3.60578 27.8984 4.10046 28.1102C4.81865 28.4168 5.56615 28.5793 6.2074 28.972L8.95558 30.8188C8.84443 31.3112 8.45602 31.7384 8.22273 32.1423C7.43126 33.5051 6.66909 34.6846 5.90204 36.0512C5.66265 36.4772 5.28401 36.8108 5.13866 37.3439ZM18.5742 50.0864C17.9635 49.9916 17.3846 49.6309 16.8948 49.3785C15.9177 48.8725 15.0272 48.4502 14.1771 47.8396L12.4061 46.393C11.9505 46.0999 10.3211 44.998 10.2075 44.5154L10.1159 44.4231L11.0015 44.3C12.2644 43.9306 13.7777 43.6142 15.0627 43.315L17.2917 42.8841H17.5055C18.2776 45.2033 18.6393 47.6411 18.5742 50.0864ZM18.4216 39.0675C17.6704 40.9143 14.6498 41.7589 12.742 42.5148C12.3023 42.6884 11.8186 42.7364 11.3373 42.9149L10.4213 43.2843C9.6811 43.3594 9.25239 42.2796 8.65023 42.2686C8.6258 42.2132 8.43648 42.4015 8.31434 42.4532C8.12136 42.548 7.89173 42.0506 7.7647 41.8684C7.30545 41.2048 6.58604 40.6053 6.299 39.8062L6.7265 39.4061C6.56039 38.937 6.11579 38.0838 6.299 37.4978L7.00132 36.5744C7.68897 35.3519 8.77359 34.3399 9.7495 33.3119L11.032 31.8652L12.742 31.2497L19.1849 32.6039C19.3608 33.3513 18.9516 35.0552 18.788 35.805L18.4216 39.0675ZM25.4447 51.256L24.9867 51.8101C23.9998 52.2644 22.0333 51.405 21.0781 51.256L20.8033 50.5173L19.6735 50.148C19.3071 49.4093 19.4695 47.2215 19.5208 46.4545L19.246 42.6995C19.2057 42.4114 19.1642 42.1245 19.1239 41.8377C19.4903 39.299 23.9375 38.7597 25.3531 37.0361L27.002 39.1907C27.7348 39.9651 29.1834 41.094 29.4754 42.1147C29.5816 42.484 29.8479 43.2079 29.7196 43.6536C29.3337 44.9882 28.4787 46.1787 28.0097 47.5318C27.6567 48.5499 27.2768 50.6097 26.605 51.256H25.4447ZM35.6435 49.7171C33.4071 50.7759 30.4855 51.6734 27.6738 51.5946L27.6432 51.5638C27.8362 51.1124 28.0296 50.661 28.2234 50.2096C28.679 49.1557 28.9844 48.1424 29.567 47.2548L30.9716 45.131C31.4602 45.28 31.8779 45.5964 32.2846 45.8389C33.4718 46.5456 34.5296 47.1477 35.674 47.8703C36.2164 48.2126 36.7965 48.8294 37.5062 48.9476C37.0799 49.3785 36.22 49.4438 35.6435 49.7171ZM42.6056 45.8389C42.0669 46.5173 40.484 47.5047 39.6742 47.9627C39.5435 47.8396 39.502 47.6795 39.3383 47.5933C39.1099 47.4788 38.0155 47.9036 37.5978 47.9011C36.3959 47.0652 35.4469 45.9547 34.3 45.0695C33.0785 44.1252 31.6922 43.416 31.4296 41.4991C31.9394 39.3651 32.4483 37.2311 32.9564 35.097C34.471 35.3913 35.8524 35.3987 37.2619 35.6511L39.3688 35.805C41.3487 36.6397 41.6749 39.5255 42.4224 41.5606C42.674 42.2464 43.1882 43.0442 43.2774 43.8383C43.347 44.4539 42.6117 44.9045 42.4224 45.3465C42.3637 45.5311 42.5213 45.6961 42.6056 45.8389ZM46.1782 41.8684C45.7031 42.5197 44.8518 43.9109 44.1934 44.3C44.1531 44.002 44.1116 43.7041 44.0713 43.4074L43.7049 42.0223C43.6645 41.6628 43.623 41.3033 43.5827 40.9451C43.3836 40.1805 43.0941 39.2522 43.0025 38.3596C42.9427 37.7871 42.6679 37.0989 42.8193 36.6052C44.0407 36.5732 45.0899 35.9478 46.2698 35.7742L49.7509 35.6203L49.9646 35.6511C49.3563 38.1429 47.4583 40.1091 46.1782 41.8684ZM51.125 33.0348L50.3921 33.3734C50.2981 33.6369 50.0428 34.3054 49.9951 34.6046C49.7044 34.4618 48.9985 34.74 48.9875 34.7277C48.461 34.7141 45.6603 34.3522 44.7736 34.7892C44.8139 34.6908 43.9455 34.7437 43.6132 34.82C42.2123 35.1389 41.5161 34.9321 40.407 34.1737C39.8244 33.7748 39.629 32.7074 39.2467 31.9576C38.8591 31.2804 38.4723 30.6033 38.0863 29.9262C37.7871 29.4005 37.2631 29.0964 37.0481 28.4488L38.1779 27.6793L39.6131 26.4481C40.4131 25.7808 41.0788 24.5484 42.117 24.1705L43.7354 23.8935C45.2109 24.6322 46.7889 25.2662 48.3157 25.9557L49.9951 26.5097L51.1555 27.0637C51.3534 27.3764 51.2544 27.9932 51.2166 28.3257C51.385 28.5462 51.5919 28.734 51.8273 28.8797C51.8151 30.4642 51.3094 31.688 51.125 33.0348Z" fill="#231F20"/>
</g>
<path d="M59.672 17.24C59.672 16.5573 59.7893 15.88 60.024 15.208C60.2693 14.536 60.6213 13.928 61.08 13.384C61.5387 12.8293 62.104 12.392 62.776 12.072C63.448 11.7413 64.2107 11.576 65.064 11.576C66.0667 11.576 66.9307 11.8107 67.656 12.28C68.3813 12.7387 68.9147 13.3307 69.256 14.056L68.376 14.6C68.1307 14.0987 67.8213 13.704 67.448 13.416C67.0747 13.1173 66.6747 12.904 66.248 12.776C65.832 12.648 65.416 12.584 65 12.584C64.3173 12.584 63.7147 12.7227 63.192 13C62.6693 13.2667 62.2267 13.6293 61.864 14.088C61.512 14.5467 61.2453 15.0533 61.064 15.608C60.8827 16.1627 60.792 16.728 60.792 17.304C60.792 17.9333 60.8987 18.536 61.112 19.112C61.3253 19.6773 61.624 20.184 62.008 20.632C62.392 21.08 62.84 21.4373 63.352 21.704C63.8747 21.96 64.44 22.088 65.048 22.088C65.4747 22.088 65.912 22.0133 66.36 21.864C66.808 21.7147 67.224 21.4853 67.608 21.176C67.992 20.8667 68.3067 20.4667 68.552 19.976L69.48 20.456C69.2347 21.0213 68.8667 21.5013 68.376 21.896C67.896 22.2907 67.352 22.5893 66.744 22.792C66.1467 22.9947 65.56 23.096 64.984 23.096C64.2053 23.096 63.4907 22.9307 62.84 22.6C62.1893 22.2587 61.624 21.8107 61.144 21.256C60.6747 20.6907 60.312 20.0613 60.056 19.368C59.8 18.664 59.672 17.9547 59.672 17.24ZM70.4967 20.6C70.4967 20.088 70.6461 19.6453 70.9448 19.272C71.2434 18.888 71.6541 18.5893 72.1768 18.376C72.7101 18.1627 73.3234 18.056 74.0168 18.056C74.4221 18.056 74.8434 18.0933 75.2808 18.168C75.7181 18.232 76.1074 18.3227 76.4488 18.44V17.736C76.4488 17.032 76.2408 16.472 75.8248 16.056C75.4088 15.64 74.8328 15.432 74.0968 15.432C73.6594 15.432 73.2221 15.5173 72.7848 15.688C72.3474 15.848 71.8941 16.088 71.4248 16.408L71.0088 15.64C71.5528 15.2667 72.0861 14.9893 72.6088 14.808C73.1314 14.616 73.6648 14.52 74.2088 14.52C75.2328 14.52 76.0434 14.8133 76.6408 15.4C77.2381 15.9867 77.5368 16.7973 77.5368 17.832V21.688C77.5368 21.976 77.6701 22.1253 77.9368 22.136V23C77.7021 23.032 77.5368 23.0427 77.4408 23.032C77.1741 23.0213 76.9714 22.936 76.8328 22.776C76.6941 22.616 76.6194 22.4453 76.6088 22.264L76.5928 21.656C76.2194 22.136 75.7341 22.5093 75.1368 22.776C74.5394 23.032 73.9314 23.16 73.3128 23.16C72.7688 23.16 72.2834 23.048 71.8568 22.824C71.4301 22.5893 71.0941 22.28 70.8488 21.896C70.6141 21.5013 70.4967 21.0693 70.4967 20.6ZM76.0808 21.24C76.3261 20.952 76.4488 20.6853 76.4488 20.44V19.224C75.7128 18.936 74.9448 18.792 74.1448 18.792C73.3661 18.792 72.7368 18.9467 72.2568 19.256C71.7768 19.5653 71.5368 19.9867 71.5368 20.52C71.5368 20.9787 71.7128 21.3947 72.0648 21.768C72.4274 22.1413 72.9288 22.328 73.5688 22.328C74.0914 22.328 74.5768 22.2267 75.0248 22.024C75.4834 21.8213 75.8354 21.56 76.0808 21.24ZM84.0475 15.624C83.3222 15.6453 82.6822 15.848 82.1275 16.232C81.5835 16.616 81.1995 17.144 80.9755 17.816V23H79.8875V14.664H80.9115V16.664C81.1995 16.0773 81.5782 15.6027 82.0475 15.24C82.5275 14.8773 83.0342 14.6747 83.5675 14.632C83.6742 14.6213 83.7648 14.616 83.8395 14.616C83.9142 14.616 83.9835 14.6213 84.0475 14.632V15.624ZM89.5769 23.16C88.9262 23.16 88.3235 22.9947 87.7689 22.664C87.2142 22.3227 86.7822 21.896 86.4729 21.384V23H85.4969V11.32H86.5849V16.408C86.9582 15.8427 87.4062 15.3893 87.9289 15.048C88.4515 14.696 89.0595 14.52 89.7529 14.52C90.3395 14.52 90.8622 14.6427 91.3209 14.888C91.7902 15.1333 92.1902 15.464 92.5209 15.88C92.8515 16.2853 93.1022 16.7493 93.2729 17.272C93.4435 17.784 93.5289 18.312 93.5289 18.856C93.5289 19.6347 93.3529 20.3493 93.0009 21C92.6595 21.6507 92.1902 22.1733 91.5929 22.568C90.9955 22.9627 90.3235 23.16 89.5769 23.16ZM89.3209 22.2C89.9289 22.2 90.4622 22.04 90.9209 21.72C91.3902 21.4 91.7582 20.9893 92.0249 20.488C92.2915 19.976 92.4249 19.432 92.4249 18.856C92.4249 18.2693 92.2969 17.72 92.0409 17.208C91.7955 16.696 91.4489 16.28 91.0009 15.96C90.5529 15.64 90.0355 15.48 89.4489 15.48C88.7982 15.48 88.2222 15.688 87.7209 16.104C87.2302 16.52 86.8515 17.0053 86.5849 17.56V20.152C86.6382 20.536 86.8142 20.8827 87.1129 21.192C87.4115 21.5013 87.7635 21.7467 88.1689 21.928C88.5742 22.1093 88.9582 22.2 89.3209 22.2ZM98.9239 23.16C98.1239 23.16 97.4092 22.9627 96.7799 22.568C96.1612 22.1733 95.6759 21.6507 95.3239 21C94.9719 20.3387 94.7959 19.624 94.7959 18.856C94.7959 18.0773 94.9719 17.3627 95.3239 16.712C95.6865 16.0507 96.1772 15.5227 96.7959 15.128C97.4252 14.7227 98.1345 14.52 98.9239 14.52C99.7239 14.52 100.433 14.7227 101.052 15.128C101.681 15.5227 102.172 16.0507 102.524 16.712C102.887 17.3627 103.068 18.0773 103.068 18.856C103.068 19.624 102.892 20.3387 102.54 21C102.188 21.6507 101.697 22.1733 101.068 22.568C100.449 22.9627 99.7345 23.16 98.9239 23.16ZM95.8999 18.872C95.8999 19.4907 96.0332 20.056 96.2999 20.568C96.5772 21.0693 96.9452 21.4693 97.4039 21.768C97.8625 22.056 98.3692 22.2 98.9239 22.2C99.4785 22.2 99.9852 22.0507 100.444 21.752C100.903 21.4533 101.271 21.048 101.548 20.536C101.825 20.024 101.964 19.4587 101.964 18.84C101.964 18.2213 101.825 17.656 101.548 17.144C101.271 16.632 100.903 16.2267 100.444 15.928C99.9852 15.6293 99.4785 15.48 98.9239 15.48C98.3799 15.48 97.8785 15.6347 97.4199 15.944C96.9612 16.2427 96.5932 16.648 96.3159 17.16C96.0385 17.672 95.8999 18.2427 95.8999 18.872ZM111.896 23H110.808V18.344C110.808 17.3627 110.658 16.648 110.36 16.2C110.072 15.7413 109.624 15.512 109.016 15.512C108.589 15.512 108.168 15.6187 107.752 15.832C107.336 16.0347 106.968 16.3173 106.648 16.68C106.338 17.032 106.114 17.4373 105.976 17.896V23H104.888V14.664H105.88V16.552C106.21 15.944 106.696 15.4533 107.336 15.08C107.976 14.7067 108.669 14.52 109.416 14.52C110.034 14.52 110.525 14.6693 110.888 14.968C111.25 15.256 111.506 15.672 111.656 16.216C111.816 16.7493 111.896 17.384 111.896 18.12V23ZM113.656 18.856C113.656 18.0667 113.816 17.3467 114.136 16.696C114.466 16.0347 114.92 15.5067 115.496 15.112C116.072 14.7173 116.728 14.52 117.464 14.52C118.157 14.52 118.776 14.7067 119.32 15.08C119.874 15.4427 120.306 15.8853 120.616 16.408V11.32H121.704V21.688C121.704 21.976 121.832 22.1253 122.088 22.136V23C121.874 23.032 121.709 23.0427 121.592 23.032C121.357 23.0213 121.154 22.936 120.984 22.776C120.824 22.6053 120.744 22.4133 120.744 22.2V21.384C120.413 21.928 119.965 22.36 119.4 22.68C118.834 23 118.248 23.16 117.64 23.16C117.064 23.16 116.53 23.0427 116.04 22.808C115.549 22.5733 115.122 22.2533 114.76 21.848C114.408 21.4427 114.136 20.984 113.944 20.472C113.752 19.9493 113.656 19.4107 113.656 18.856ZM120.616 20.136V17.56C120.477 17.176 120.253 16.8293 119.944 16.52C119.634 16.2 119.282 15.9493 118.888 15.768C118.504 15.576 118.12 15.48 117.736 15.48C117.138 15.48 116.616 15.6453 116.168 15.976C115.73 16.296 115.389 16.7173 115.144 17.24C114.898 17.752 114.776 18.2907 114.776 18.856C114.776 19.4533 114.909 20.008 115.176 20.52C115.453 21.032 115.826 21.4427 116.296 21.752C116.765 22.0507 117.293 22.2 117.88 22.2C118.242 22.2 118.621 22.1093 119.016 21.928C119.421 21.736 119.773 21.4853 120.072 21.176C120.381 20.8667 120.562 20.52 120.616 20.136ZM123.497 20.6C123.497 20.088 123.646 19.6453 123.945 19.272C124.243 18.888 124.654 18.5893 125.177 18.376C125.71 18.1627 126.323 18.056 127.017 18.056C127.422 18.056 127.843 18.0933 128.281 18.168C128.718 18.232 129.107 18.3227 129.449 18.44V17.736C129.449 17.032 129.241 16.472 128.825 16.056C128.409 15.64 127.833 15.432 127.097 15.432C126.659 15.432 126.222 15.5173 125.785 15.688C125.347 15.848 124.894 16.088 124.425 16.408L124.009 15.64C124.553 15.2667 125.086 14.9893 125.609 14.808C126.131 14.616 126.665 14.52 127.209 14.52C128.233 14.52 129.043 14.8133 129.641 15.4C130.238 15.9867 130.537 16.7973 130.537 17.832V21.688C130.537 21.976 130.67 22.1253 130.937 22.136V23C130.702 23.032 130.537 23.0427 130.441 23.032C130.174 23.0213 129.971 22.936 129.833 22.776C129.694 22.616 129.619 22.4453 129.609 22.264L129.593 21.656C129.219 22.136 128.734 22.5093 128.137 22.776C127.539 23.032 126.931 23.16 126.313 23.16C125.769 23.16 125.283 23.048 124.857 22.824C124.43 22.5893 124.094 22.28 123.849 21.896C123.614 21.5013 123.497 21.0693 123.497 20.6ZM129.081 21.24C129.326 20.952 129.449 20.6853 129.449 20.44V19.224C128.713 18.936 127.945 18.792 127.145 18.792C126.366 18.792 125.737 18.9467 125.257 19.256C124.777 19.5653 124.537 19.9867 124.537 20.52C124.537 20.9787 124.713 21.3947 125.065 21.768C125.427 22.1413 125.929 22.328 126.569 22.328C127.091 22.328 127.577 22.2267 128.025 22.024C128.483 21.8213 128.835 21.56 129.081 21.24ZM132.936 11.32H134.024V21.112C134.024 21.528 134.093 21.8 134.232 21.928C134.381 22.056 134.568 22.12 134.792 22.12C134.984 22.12 135.176 22.0987 135.368 22.056C135.57 22.0133 135.736 21.9707 135.864 21.928L136.056 22.808C135.853 22.8933 135.602 22.9627 135.304 23.016C135.016 23.0693 134.765 23.096 134.552 23.096C134.061 23.096 133.666 22.952 133.368 22.664C133.08 22.376 132.936 21.9813 132.936 21.48V11.32ZM140.847 23.16C140.047 23.16 139.332 22.9627 138.703 22.568C138.074 22.1733 137.578 21.6453 137.215 20.984C136.852 20.3227 136.671 19.5973 136.671 18.808C136.671 18.0293 136.847 17.3147 137.199 16.664C137.562 16.0133 138.058 15.496 138.687 15.112C139.316 14.7173 140.031 14.52 140.831 14.52C141.652 14.52 142.372 14.7173 142.991 15.112C143.61 15.5067 144.09 16.0293 144.431 16.68C144.783 17.32 144.959 18.024 144.959 18.792C144.959 18.9627 144.954 19.1067 144.943 19.224H137.807C137.86 19.8213 138.031 20.3547 138.319 20.824C138.607 21.2827 138.975 21.6507 139.423 21.928C139.871 22.1947 140.362 22.328 140.895 22.328C141.439 22.328 141.951 22.1893 142.431 21.912C142.911 21.6347 143.252 21.272 143.455 20.824L144.399 21.08C144.228 21.4853 143.962 21.848 143.599 22.168C143.247 22.4773 142.836 22.7227 142.367 22.904C141.898 23.0747 141.391 23.16 140.847 23.16ZM137.775 18.44H143.935C143.892 17.8427 143.727 17.3147 143.439 16.856C143.151 16.3867 142.783 16.024 142.335 15.768C141.887 15.5013 141.391 15.368 140.847 15.368C140.303 15.368 139.807 15.5013 139.359 15.768C138.911 16.024 138.543 16.3867 138.255 16.856C137.978 17.3147 137.818 17.8427 137.775 18.44Z" fill="black"/>
<path d="M70.1875 38.189C70.1875 38.9043 70.0457 39.5087 69.762 40.002C69.4783 40.483 69.1022 40.8715 68.6335 41.1675C68.1648 41.4635 67.6283 41.6793 67.024 41.815C66.432 41.9383 65.8215 42 65.1925 42H59.9755V28.902H65.1925C65.6982 28.902 66.2162 28.9575 66.7465 29.0685C67.2768 29.1672 67.7578 29.346 68.1895 29.605C68.6212 29.8517 68.9727 30.1908 69.244 30.6225C69.5153 31.0542 69.651 31.603 69.651 32.269C69.651 32.9967 69.4537 33.601 69.059 34.082C68.6643 34.5507 68.1463 34.8898 67.505 35.0995V35.1365C67.875 35.1982 68.2203 35.3153 68.541 35.488C68.874 35.6483 69.1577 35.858 69.392 36.117C69.6387 36.376 69.8298 36.6782 69.9655 37.0235C70.1135 37.3688 70.1875 37.7573 70.1875 38.189ZM66.5985 32.6945C66.5985 32.2505 66.4258 31.9298 66.0805 31.7325C65.7475 31.5228 65.248 31.418 64.582 31.418H63.028V34.119H64.73C65.322 34.119 65.7783 34.0018 66.099 33.7675C66.432 33.5208 66.5985 33.1632 66.5985 32.6945ZM67.024 37.893C67.024 37.3503 66.8205 36.9742 66.4135 36.7645C66.0065 36.5548 65.4638 36.45 64.7855 36.45H63.028V39.447H64.804C65.0507 39.447 65.3035 39.4285 65.5625 39.3915C65.8338 39.3422 66.0743 39.262 66.284 39.151C66.506 39.04 66.6848 38.8858 66.8205 38.6885C66.9562 38.4788 67.024 38.2137 67.024 37.893ZM72.2787 42V28.902H75.4607V42H72.2787ZM86.1789 42L81.3134 35.969H81.2764V42H78.1684V28.902H81.2764V34.23H81.3319L86.0124 28.902H89.9714L84.3289 34.933L90.3044 42H86.1789ZM91.3207 42V28.902H100.127V31.5845H94.3732V34.045H99.8122V36.5795H94.3732V39.299H100.46V42H91.3207ZM117.118 32.935C117.118 33.6997 116.976 34.3472 116.692 34.8775C116.408 35.3955 116.026 35.8148 115.545 36.1355C115.064 36.4562 114.509 36.6905 113.88 36.8385C113.251 36.9865 112.597 37.0605 111.919 37.0605H110.347V42H107.183V28.902H111.993C112.708 28.902 113.374 28.976 113.991 29.124C114.62 29.2597 115.163 29.4878 115.619 29.8085C116.088 30.1168 116.452 30.53 116.711 31.048C116.982 31.5537 117.118 32.1827 117.118 32.935ZM113.954 32.9535C113.954 32.6452 113.892 32.3923 113.769 32.195C113.646 31.9977 113.479 31.8435 113.27 31.7325C113.06 31.6215 112.819 31.5475 112.548 31.5105C112.289 31.4735 112.018 31.455 111.734 31.455H110.347V34.5445H111.679C111.975 34.5445 112.258 34.5198 112.53 34.4705C112.801 34.4212 113.041 34.3348 113.251 34.2115C113.473 34.0882 113.646 33.9278 113.769 33.7305C113.892 33.5208 113.954 33.2618 113.954 32.9535ZM126.028 42L123.198 36.8015H122.125V42H119.017V28.902H124.012C124.641 28.902 125.251 28.9698 125.843 29.1055C126.447 29.2288 126.984 29.4447 127.453 29.753C127.934 30.0613 128.316 30.4683 128.6 30.974C128.883 31.4797 129.025 32.1087 129.025 32.861C129.025 33.749 128.785 34.4952 128.304 35.0995C127.823 35.7038 127.157 36.1355 126.306 36.3945L129.728 42H126.028ZM125.899 32.9165C125.899 32.6082 125.831 32.3615 125.695 32.1765C125.572 31.9792 125.405 31.8312 125.196 31.7325C124.998 31.6215 124.77 31.5475 124.511 31.5105C124.264 31.4735 124.024 31.455 123.79 31.455H122.106V34.5075H123.605C123.864 34.5075 124.129 34.489 124.4 34.452C124.671 34.4027 124.918 34.3225 125.14 34.2115C125.362 34.1005 125.541 33.9402 125.677 33.7305C125.825 33.5208 125.899 33.2495 125.899 32.9165ZM144.937 35.3955C144.937 36.4315 144.758 37.3812 144.4 38.2445C144.042 39.0955 143.543 39.8293 142.902 40.446C142.273 41.0503 141.52 41.519 140.645 41.852C139.769 42.185 138.819 42.3515 137.796 42.3515C136.772 42.3515 135.822 42.185 134.947 41.852C134.083 41.519 133.331 41.0503 132.69 40.446C132.061 39.8293 131.567 39.0955 131.21 38.2445C130.852 37.3812 130.673 36.4315 130.673 35.3955C130.673 34.3472 130.852 33.4037 131.21 32.565C131.567 31.714 132.061 30.9925 132.69 30.4005C133.331 29.8085 134.083 29.3522 134.947 29.0315C135.822 28.7108 136.772 28.5505 137.796 28.5505C138.819 28.5505 139.769 28.7108 140.645 29.0315C141.52 29.3522 142.273 29.8085 142.902 30.4005C143.543 30.9925 144.042 31.714 144.4 32.565C144.758 33.4037 144.937 34.3472 144.937 35.3955ZM141.551 35.3955C141.551 34.8282 141.459 34.2978 141.274 33.8045C141.089 33.3112 140.83 32.8918 140.497 32.5465C140.176 32.1888 139.781 31.9113 139.313 31.714C138.856 31.5043 138.351 31.3995 137.796 31.3995C137.241 31.3995 136.735 31.5043 136.279 31.714C135.822 31.9113 135.428 32.1888 135.095 32.5465C134.762 32.8918 134.503 33.3112 134.318 33.8045C134.145 34.2978 134.059 34.8282 134.059 35.3955C134.059 35.9875 134.151 36.5363 134.336 37.042C134.521 37.5353 134.774 37.9608 135.095 38.3185C135.428 38.6762 135.822 38.9598 136.279 39.1695C136.735 39.3668 137.241 39.4655 137.796 39.4655C138.351 39.4655 138.856 39.3668 139.313 39.1695C139.769 38.9598 140.164 38.6762 140.497 38.3185C140.83 37.9608 141.089 37.5353 141.274 37.042C141.459 36.5363 141.551 35.9875 141.551 35.3955ZM153.51 37.523C153.51 38.041 153.449 38.5837 153.325 39.151C153.214 39.7183 152.999 40.2425 152.678 40.7235C152.37 41.1922 151.932 41.5807 151.364 41.889C150.809 42.1973 150.088 42.3515 149.2 42.3515C148.09 42.3515 147.165 42.0678 146.425 41.5005C145.685 40.9208 145.192 40.1808 144.945 39.2805L147.738 38.337C147.825 38.6823 147.979 38.9598 148.201 39.1695C148.435 39.3792 148.719 39.484 149.052 39.484C149.57 39.484 149.909 39.3052 150.069 38.9475C150.242 38.5898 150.328 38.1212 150.328 37.5415V28.902H153.51V37.523ZM156.143 42V28.902H164.949V31.5845H159.195V34.045H164.634V36.5795H159.195V39.299H165.282V42H156.143ZM178.906 40.187C178.326 40.853 177.611 41.3833 176.76 41.778C175.909 42.1603 174.928 42.3515 173.818 42.3515C172.807 42.3515 171.87 42.185 171.006 41.852C170.155 41.519 169.415 41.0503 168.786 40.446C168.157 39.8293 167.664 39.0955 167.306 38.2445C166.949 37.3935 166.77 36.4562 166.77 35.4325C166.77 34.3842 166.949 33.4345 167.306 32.5835C167.676 31.7325 168.182 31.011 168.823 30.419C169.465 29.8147 170.217 29.3522 171.08 29.0315C171.944 28.7108 172.875 28.5505 173.874 28.5505C174.799 28.5505 175.705 28.717 176.593 29.05C177.494 29.3707 178.221 29.8455 178.776 30.4745L176.63 32.6205C176.334 32.2135 175.946 31.9113 175.465 31.714C174.984 31.5167 174.49 31.418 173.985 31.418C173.43 31.418 172.918 31.5228 172.449 31.7325C171.993 31.9298 171.598 32.2073 171.265 32.565C170.932 32.9227 170.673 33.3482 170.488 33.8415C170.303 34.3225 170.211 34.8528 170.211 35.4325C170.211 36.0245 170.303 36.5672 170.488 37.0605C170.673 37.5538 170.926 37.9793 171.247 38.337C171.58 38.6823 171.974 38.9537 172.431 39.151C172.887 39.3483 173.387 39.447 173.929 39.447C174.558 39.447 175.107 39.3237 175.576 39.077C176.044 38.8303 176.421 38.5097 176.704 38.115L178.906 40.187ZM185.759 31.603V42H182.595V31.603H178.895V28.902H189.459V31.603H185.759Z" fill="#1A2328"/>
<defs>
<clipPath id="clip0_173_153">
<rect width="54" height="54" fill="white"/>
</clipPath>
</defs>
</svg>
