<svg width="240" height="240" viewBox="0 0 240 240" fill="none" xmlns="http://www.w3.org/2000/svg">
<g clip-path="url(#clip0_6395_131257)">
<path d="M231.532 14.377C225.517 10.8107 222.637 5.10055 227.678 0H197.089C198.834 34.007 180.233 99.5216 153.043 120.513C137.576 132.462 119.412 133.803 111.207 113.289C103.286 93.5168 99.9901 69.4772 92.6574 49.2375C90.3248 37.9798 97.627 22.353 105.426 14.2856C111.004 9.84548 116.41 4.98878 121.775 0H101.724C100.102 1.21925 98.7933 2.13369 98.3471 2.26578C95.5986 3.09894 94.0773 1.97113 93.2254 0H55.9029C55.9434 30.0851 31.0347 55.8622 0.0205078 55.5878V99.2879C8.08339 99.5419 16.3998 101.3 21.9272 103.88C39.6554 114.732 58.915 123.856 76.5722 134.728C79.6351 136.617 83.3471 138.853 85.8927 141.383C101.522 156.887 84.7365 178.133 69.057 184.92C50.4972 192.947 24.8582 197.092 0.0205078 197.133V233.446C0.0205078 233.446 0.0407918 233.386 0.0610758 233.355C4.21929 223.987 12.1503 221.894 17.9008 231.394C20.0915 235.011 20.3248 241.392 25.5885 239.756C28.9455 238.71 28.0225 235.509 28.8542 232.695C32.1605 221.538 39.8887 217.942 47.4749 228.315C49.8887 231.618 49.8278 236.21 54.6554 234.93C58.8745 233.812 57.2619 230.52 57.7284 227.177C59.0367 217.81 65.0408 211.581 73.7528 218.724C77.1909 221.549 78.9252 227.868 83.3877 226.324C88.0023 224.739 85.3958 220.604 85.5885 216.722C86.1767 204.469 95.3248 202.691 103.753 210.311C106.207 212.536 106.481 215.595 110.649 214.274C115.416 212.77 112.323 207.903 112.1 204.408C111.369 192.784 119.067 188.862 128.55 195.304C131.511 197.316 133.094 201.085 137.11 198.495C140.933 196.036 137.252 192.154 136.765 188.547C135.294 177.655 140.558 172.657 151.055 177.188C154.047 178.478 156.917 182.411 160.193 180.297C164.453 177.534 160.284 173.114 159.219 169.507C156.156 159.102 161.562 153.982 171.897 156.806C174.442 157.507 178.408 160.718 180.609 159.438C186.38 156.085 180.355 151.584 178.773 147.448C175.132 137.969 179.96 132.706 189.777 133.966C193.621 134.453 197.495 138.152 200.193 134.311C203.043 130.257 198.286 127.951 196.227 124.557C190.375 114.905 195.355 108.605 206.126 109.225C209.402 109.418 213.347 111.826 215.386 108.219C217.84 103.891 212.749 102.255 210.284 99.1457C207.13 95.1729 204.787 89.3205 209.331 85.4291C214.666 80.8467 224.331 83.8644 226.238 82.198C227.323 81.2531 227.83 78.1542 227.201 76.7927C226.795 75.8884 222.282 73.3178 221.065 72.129C212.1 63.391 217.191 55.8317 228.256 54.2263C231.724 53.7183 235.051 55.5675 235.72 50.345C236.197 46.6263 230.862 45.6509 228.286 43.7509C218.692 36.6995 221.907 28.5407 232.485 25.5027C236.075 24.4664 239.666 25.7466 240.01 21.2353C240.375 16.5107 235.021 16.4599 231.552 14.4075L231.532 14.377ZM37.6676 97.9264C32.1808 94.289 25.0509 90.6922 34.7974 85.6831C49.2801 78.2456 55.8522 76.498 67.3735 63.7263C69.8481 60.983 75.3146 50.9242 80.0104 54.7851C80.4465 55.1408 81.0347 56.5835 81.2781 57.2033C82.6777 60.7595 85.2335 69.5889 85.8217 73.3076C87.0083 80.8264 83.7122 83.6307 78.6818 88.3451C74.27 92.4702 57.9414 104.866 52.4039 104.856C48.2964 104.856 41.1564 100.253 37.6676 97.9366V97.9264ZM87.8197 129.343C72.6574 127.91 72.9617 105.902 86.4201 103.941C106.633 100.995 106.085 131.07 87.8197 129.343Z" fill="black"/>
</g>
<defs>
<clipPath id="clip0_6395_131257">
<rect width="240" height="240" fill="white"/>
</clipPath>
</defs>
</svg>
