<svg width="240" height="240" viewBox="0 0 240 240" fill="none" xmlns="http://www.w3.org/2000/svg">
<g clip-path="url(#clip0_6395_131272)">
<g clip-path="url(#clip1_6395_131272)">
<path d="M0 20.2058C2.49344 15.3013 5.95236 10.7075 10.4607 6.69326C13.5166 3.96389 16.8076 1.7384 20.233 0H0V20.2058Z" fill="black"/>
<path d="M233.099 36.3888C223.982 32.5509 224.888 25.2278 233.015 20.844C235.995 19.24 239.841 19.4331 238.187 14.8058C237.322 12.3787 235.341 13.2269 233.536 12.849C225.392 11.1526 220.506 6.07178 225.568 -0.00842285H164.047C170.402 6.02979 167.489 20.3989 154.829 18.4085C145.585 16.9557 144.057 5.28236 149.959 -0.00842285H127.669C130.918 2.9477 132.329 7.99494 133.672 12.152C135.091 16.519 138.206 27.9487 137.198 32.047C136.728 33.987 134.394 36.624 132.9 37.976C131.565 39.177 123.01 45.5931 121.826 45.9038C115.58 47.5414 117.251 37.4973 116.923 33.9534C115.781 21.8182 112.062 11.6733 105.379 1.53682C105.287 1.11692 105.22 0.571044 105.212 -0.00842285H61.5386C71.7978 5.0976 80.2604 14.0331 84.3405 26.1432C96.0102 60.8104 64.6617 94.4782 29.2749 85.4251C15.54 81.9147 5.51589 72.912 -0.00830078 61.793V105.102C0.251957 105.261 0.520611 105.421 0.780869 105.572C3.99632 107.462 11.6949 110.031 13.7686 111.955C15.2798 113.349 15.5988 115.179 14.3815 116.859C10.486 118.799 5.03735 123.435 -0.00830078 125.198V138.215C7.75747 133.916 15.54 129.624 22.5502 124.837C31.0716 120.915 47.1824 123.216 55.4183 127.432C69.7409 136.956 85.3816 145.093 99.6538 154.625C102.13 156.28 105.128 158.245 107.151 160.411C119.601 173.706 105.044 190.729 91.8628 195.843C66.9956 205.484 27.5623 206.424 -0.00830078 198.891V227.378C0.70531 229.721 0.680124 234.474 1.36015 235.574C2.20809 236.943 5.40675 237.355 6.5989 236.196C7.11102 235.692 8.26959 232.618 8.94962 231.543C13.7266 223.96 20.8711 223.305 24.2293 232.4C24.9345 234.315 25.2199 238.984 26.9914 239.639C31.6676 241.377 31.8104 236.666 33.2712 233.685C37.0071 226.076 43.6311 224.598 48.0891 232.618C49.785 235.675 49.7766 240.957 54.1926 239.765C56.9966 239.009 56.3418 236.33 57.1142 234.037C60.2037 224.925 66.7101 222.196 72.6541 231.006C74.5515 233.811 74.3584 237.598 78.3798 236.691C81.9059 235.902 80.6717 233.13 81.1587 230.384C82.5355 222.683 87.6987 217.728 94.6753 223.901C97.4374 226.336 98.6631 231.61 102.407 230.485C106.269 229.318 104.254 225.824 104.523 222.616C105.388 212.513 113.019 211.329 119.744 217.896C121.709 219.811 121.834 222.347 125.327 221.39C129.315 220.298 126.914 216.183 126.838 213.286C126.603 203.662 133.093 200.663 140.733 206.282C143.125 208.037 144.309 211.195 147.718 209.187C150.958 207.273 148.037 203.955 147.743 200.966C146.861 191.921 151.378 187.957 159.916 192.03C162.351 193.189 164.601 196.532 167.371 194.877C170.981 192.727 167.674 188.948 166.91 185.933C164.702 177.25 169.336 173.177 177.79 175.839C179.88 176.494 183.046 179.274 184.918 178.283C189.795 175.696 184.96 171.782 183.776 168.322C181.064 160.378 185.22 156.179 193.305 157.531C196.47 158.06 199.559 161.226 201.91 158.144C204.395 154.886 200.533 152.836 198.93 149.964C194.388 141.81 198.711 136.763 207.602 137.611C210.305 137.871 213.487 139.987 215.301 137.073C217.467 133.571 213.303 132.06 211.363 129.423C208.878 126.038 207.124 121.142 211.002 118.06C215.561 114.44 223.453 117.237 225.081 115.919C226.005 115.171 226.517 112.635 226.047 111.484C225.736 110.729 222.084 108.453 221.119 107.436C213.974 99.937 218.424 93.8568 227.625 92.8742C230.505 92.5635 233.2 94.1927 233.922 89.9013C234.434 86.8444 230.052 85.8702 227.978 84.2242C220.262 78.102 223.184 71.4591 232.024 69.284C235.022 68.545 237.96 69.7123 238.388 66.0004C238.833 62.1121 234.409 61.9021 231.605 60.0966C226.366 56.7205 224.208 51.4046 229.959 47.1887C233.166 44.8373 236.717 44.8541 239.849 42.8469L239.975 39.5969C238.623 37.237 235.492 37.4134 233.074 36.3972L233.099 36.3888ZM80.6298 129.179C77.2296 129.045 71.4703 125.03 68.6579 123.006C64.2335 119.832 58.449 116.632 66.6598 112.803C78.8667 107.109 84.3657 105.874 94.2975 95.6876C96.4299 93.5041 101.274 85.3579 105.035 88.7004C105.379 89.0111 105.824 90.2204 106.009 90.7327C107.059 93.714 108.897 101.079 109.267 104.178C110.014 110.426 107.201 112.635 102.894 116.372C99.1165 119.639 85.222 129.364 80.6465 129.187L80.6298 129.179ZM109.149 150.535C96.6566 148.873 97.5969 130.708 108.788 129.515C125.604 127.718 124.202 152.542 109.149 150.535ZM163.375 145.295C150.203 154.676 135.141 155.213 128.987 138.014C123.06 121.436 121.079 101.482 115.655 84.5265C114.077 75.1543 120.609 62.4732 127.317 56.0571C141.681 45.5175 154.912 31.7363 169.319 21.4654C172.484 19.2064 177.076 16.6953 180.997 16.309C196.386 14.789 203.203 33.651 203.572 46.1306C204.387 73.987 186.807 128.608 163.375 145.295Z" fill="black"/>
<g clip-path="url(#clip2_6395_131272)">
<path d="M70.7736 12.9918C52.3876 -6.77727 19.7546 -3.53562 5.87699 19.6515C-8.86538 44.2746 5.51599 76.4224 33.6994 81.2849C72.2848 87.9361 97.5466 41.7468 70.782 12.9918H70.7736ZM38.2162 16.9221C71.4033 14.0163 73.67 63.1786 42.7413 64.9422C10.3182 66.7898 8.6139 19.5087 38.2162 16.9221Z" fill="black"/>
<path d="M54.5789 55.1081C74.0899 35.3475 43.1863 7.62543 25.6902 28.3603C9.66336 47.3483 37.6453 72.2654 54.5789 55.1081Z" fill="black"/>
</g>
</g>
</g>
<defs>
<clipPath id="clip0_6395_131272">
<rect width="240" height="240" fill="white"/>
</clipPath>
<clipPath id="clip1_6395_131272">
<rect width="240" height="240" fill="white"/>
</clipPath>
<clipPath id="clip2_6395_131272">
<rect width="81.8806" height="81.9316" fill="white"/>
</clipPath>
</defs>
</svg>
